<svg width="179" height="179" viewBox="0 0 179 179" fill="none" xmlns="http://www.w3.org/2000/svg">
<path d="M96.2071 149.032L98.5066 161.949L96.4982 162.306L93.7052 157.116L92.7035 155.141L92.6247 155.155L92.3859 157.35L91.5362 163.19L89.5278 163.547L87.2282 150.63L88.8035 150.35L89.9533 156.808C90.0093 157.124 90.067 157.486 90.1264 157.895C90.1726 158.307 90.2211 158.731 90.2719 159.169C90.3097 159.609 90.3493 160.022 90.3908 160.408C90.4216 160.808 90.4549 161.148 90.4908 161.426L90.5499 161.415L90.8298 158.765L91.7763 153.356L92.9577 153.145L95.6736 157.903L96.8705 160.29L96.9099 160.283C96.8346 160.012 96.7487 159.682 96.6524 159.293C96.5452 158.919 96.44 158.518 96.3366 158.09C96.2332 157.661 96.1387 157.244 96.0532 156.84C95.9545 156.438 95.8771 156.079 95.821 155.764L94.6712 149.305L96.2071 149.032Z" fill="white"/>
<path d="M81.915 150.658L81.8108 155.337L86.0217 163.873L84.2621 163.834L82.3695 159.891C82.1272 159.392 81.8917 158.887 81.6631 158.375C81.4344 157.863 81.1927 157.337 80.938 156.798L80.858 156.796C80.5795 157.324 80.308 157.838 80.0435 158.339C79.7789 158.84 79.5143 159.34 79.2498 159.841L77.2638 163.678L75.5443 163.64L80.1312 155.3L80.2354 150.621L81.915 150.658Z" fill="white"/>
<path d="M70.184 149.428L66.3389 161.972L62.5528 160.812C61.6222 160.526 60.8499 160.157 60.2357 159.704C59.6049 159.259 59.1804 158.711 58.962 158.058C58.731 157.402 58.7561 156.615 59.0374 155.697C59.3071 154.817 59.7274 154.151 60.2984 153.699C60.8528 153.255 61.5255 152.994 62.3165 152.916C63.1036 152.85 63.9561 152.958 64.8739 153.239L67.0729 153.913L68.5969 148.942L70.184 149.428ZM66.6743 155.214L64.6666 154.598C63.5702 154.262 62.6963 154.224 62.0447 154.485C61.3803 154.741 60.9133 155.31 60.6437 156.189C60.3662 157.094 60.4425 157.801 60.8724 158.309C61.2984 158.83 62.0532 159.257 63.1367 159.589L65.1445 160.204L66.6743 155.214Z" fill="white"/>
<path d="M59.8231 145.931L53.5611 157.46L49.9758 155.513C49.1908 155.087 48.5568 154.606 48.0738 154.07C47.5727 153.54 47.2828 152.943 47.2039 152.278C47.1069 151.618 47.2748 150.89 47.7076 150.093C48.1276 149.32 48.6501 148.777 49.2753 148.464C49.8887 148.145 50.5701 148.022 51.3193 148.095C52.0505 148.173 52.8086 148.426 53.5936 148.852L55.7202 150.007L58.3644 145.139L59.8231 145.931ZM55.0711 151.202L53.1554 150.162C52.2533 149.672 51.4692 149.481 50.8032 149.59C50.1192 149.704 49.5736 150.136 49.1663 150.885C48.759 151.635 48.7128 152.293 49.0278 152.859C49.3246 153.429 49.9241 153.96 50.8263 154.45L52.742 155.49L55.0711 151.202ZM53.6729 149.418L52.0929 149.562L51.8616 141.607L53.5312 142.514L53.6729 149.418Z" fill="white"/>
<path d="M47.7917 137.997C48.5529 138.625 49.0527 139.392 49.2912 140.297C49.5297 141.202 49.4912 142.181 49.1756 143.235C48.8515 144.298 48.2314 145.385 47.3151 146.496C46.4159 147.587 45.4836 148.382 44.5181 148.882C43.5442 149.392 42.5945 149.611 41.6688 149.539C40.7431 149.467 39.8997 149.117 39.1385 148.489C38.3773 147.862 37.8732 147.1 37.6263 146.205C37.3793 145.31 37.4136 144.336 37.7292 143.283C38.0363 142.24 38.6394 141.173 39.5387 140.083C40.4549 138.972 41.4042 138.156 42.3866 137.636C43.3605 137.125 44.3145 136.901 45.2487 136.963C46.1828 137.025 47.0305 137.37 47.7917 137.997ZM46.8627 139.124C46.3484 138.699 45.7652 138.495 45.1132 138.51C44.4423 138.527 43.7495 138.76 43.0348 139.207C42.3013 139.656 41.5782 140.313 40.8656 141.177C40.1615 142.031 39.6672 142.85 39.3827 143.635C39.0879 144.412 39.0044 145.121 39.1323 145.762C39.2414 146.405 39.5531 146.939 40.0675 147.363C40.5818 147.787 41.1701 147.996 41.8325 147.989C42.476 147.984 43.1561 147.767 43.8726 147.338C44.5789 146.901 45.2841 146.256 45.9882 145.402C46.7008 144.538 47.213 143.707 47.5248 142.91C47.8178 142.115 47.914 141.391 47.8133 140.737C47.6939 140.086 47.377 139.548 46.8627 139.124Z" fill="white"/>
<path d="M40.6801 130.935C41.144 131.503 41.4652 132.17 41.6438 132.937C41.8224 133.703 41.7608 134.503 41.459 135.334L40.0111 135.174C40.2293 134.514 40.2959 133.9 40.211 133.332C40.1073 132.763 39.8952 132.282 39.5747 131.89C38.9842 131.167 38.3588 130.791 37.6984 130.762C37.0276 130.742 36.274 131.074 35.4376 131.757L29.7066 136.438L33.186 140.698L32.1017 141.583L27.5722 136.038L34.4959 130.383C35.1258 129.868 35.7884 129.499 36.4837 129.275C37.1688 129.06 37.8686 129.074 38.5832 129.316C39.2895 129.549 39.9884 130.088 40.6801 130.935Z" fill="white"/>
<path d="M36.0538 125.185L24.4729 131.351L20.6569 124.183L21.8927 123.526L24.9192 129.21L28.5559 127.274L25.9993 122.472L27.2527 121.805L29.8093 126.607L34.0109 124.37L30.8904 118.508L32.1438 117.841L36.0538 125.185Z" fill="white"/>
<path d="M30.0992 110.838C30.3338 111.617 30.4043 112.383 30.3107 113.135C30.217 113.887 29.9707 114.595 29.5718 115.258C29.16 115.925 28.5943 116.52 27.8746 117.044C27.1383 117.558 26.2595 117.969 25.2382 118.277C23.8977 118.68 22.6693 118.786 21.5528 118.593C20.4237 118.404 19.4704 117.967 18.6932 117.282C17.9159 116.597 17.3619 115.706 17.0311 114.608C16.8042 113.855 16.7619 113.136 16.9042 112.453C17.0336 111.773 17.2424 111.195 17.5305 110.719L18.8166 111.313C18.5553 111.74 18.3859 112.195 18.3086 112.677C18.2312 113.16 18.2714 113.663 18.4291 114.187C18.6714 114.991 19.0936 115.63 19.6956 116.103C20.2811 116.567 21.0004 116.852 21.8536 116.957C22.7069 117.062 23.6569 116.957 24.7038 116.641C25.7634 116.322 26.6262 115.881 27.2922 115.318C27.9582 114.756 28.4134 114.117 28.6578 113.403C28.8983 112.676 28.8974 111.91 28.6551 111.106C28.4821 110.532 28.205 110.051 27.824 109.665C27.443 109.278 26.9694 108.954 26.4034 108.693L27.1089 107.499C27.8295 107.811 28.4456 108.238 28.9571 108.78C29.4685 109.322 29.8492 110.008 30.0992 110.838Z" fill="white"/>
<path d="M28.1882 102.418L16.526 103.581L16.9547 107.88L15.5617 108.019L14.5375 97.7499L15.9306 97.6109L16.3593 101.91L28.0214 100.746L28.1882 102.418Z" fill="white"/>
<path d="M28.3321 90.7459C28.2406 91.6881 28.0022 92.5558 27.6171 93.3489C27.232 94.1421 26.812 94.8113 26.3572 95.3566L25.3557 94.4957C25.8079 93.977 26.1864 93.3909 26.491 92.7372C26.7956 92.0836 26.991 91.3122 27.0774 90.4231C27.1573 89.6003 27.064 88.975 26.7974 88.5472C26.5321 88.1062 26.2004 87.8663 25.8023 87.8277C25.6165 87.8096 25.4401 87.8327 25.2731 87.8969C25.1074 87.9477 24.9413 88.0723 24.7747 88.2704C24.6094 88.4553 24.441 88.7404 24.2696 89.1256C24.0983 89.5109 23.914 90.0288 23.7169 90.6795C23.329 91.9144 22.8786 92.8285 22.3655 93.4217C21.8537 94.0016 21.2395 94.2568 20.5229 94.1872C19.7399 94.1111 19.1225 93.7096 18.6706 92.9825C18.2055 92.2541 18.0374 91.2264 18.1663 89.8993C18.2385 89.1562 18.4341 88.4518 18.7533 87.7862C19.0592 87.1193 19.4012 86.5631 19.7794 86.1175L20.7571 87.0162C20.3961 87.4232 20.1022 87.8971 19.8756 88.4377C19.6356 88.977 19.486 89.5519 19.4268 90.1624C19.3726 90.7198 19.3958 91.1708 19.4963 91.5154C19.5848 91.8455 19.7281 92.0939 19.9263 92.2605C20.1258 92.4138 20.3516 92.5027 20.6037 92.5272C21.0151 92.5672 21.3615 92.3798 21.6429 91.965C21.9123 91.5357 22.1943 90.8397 22.4887 89.877C22.8187 88.824 23.1507 88.0257 23.4848 87.4821C23.8202 86.9252 24.1774 86.558 24.5563 86.3805C24.9365 86.1897 25.3722 86.1181 25.8632 86.1658C26.394 86.2173 26.8623 86.4303 27.268 86.8046C27.6605 87.1776 27.9585 87.6955 28.162 88.3582C28.3656 89.021 28.4223 89.8169 28.3321 90.7459Z" fill="white"/>
<path d="M82.0009 28.3851L79.5195 15.5019L81.5227 15.116L84.3886 20.267L85.418 22.2277L85.4966 22.2126L85.7044 20.0136L86.4718 14.1629L88.475 13.777L90.9563 26.6603L89.3852 26.9629L88.1445 20.5213C88.084 20.207 88.0212 19.8457 87.9561 19.4373C87.9041 19.0264 87.8496 18.6024 87.7926 18.1653C87.7486 17.7257 87.7032 17.3135 87.6562 16.9288C87.6199 16.5284 87.5818 16.1895 87.5419 15.912L87.483 15.9234L87.2405 18.5771L86.3703 23.9996L85.192 24.2265L82.4093 19.5076L81.1788 17.1376L81.1396 17.1451C81.2187 17.415 81.3092 17.7439 81.411 18.1316C81.5234 18.5037 81.6343 18.9033 81.7437 19.3303C81.8531 19.7573 81.9535 20.1725 82.0447 20.5759C82.1491 20.9767 82.2315 21.3342 82.2921 21.6484L83.5327 28.0901L82.0009 28.3851Z" fill="white"/>
<path d="M96.3523 26.54L96.3913 21.8601L92.0618 13.3838L93.8217 13.3984L95.7691 17.3148C96.0184 17.8102 96.2608 18.3123 96.4966 18.8209C96.7324 19.3296 96.9814 19.8516 97.2436 20.3872L97.3236 20.3878C97.5947 19.8568 97.859 19.3389 98.1166 18.8344C98.3741 18.3299 98.6317 17.8253 98.8892 17.3208L100.821 13.4567L102.541 13.4711L98.0712 21.8741L98.0322 26.554L96.3523 26.54Z" fill="white"/>
<path d="M108.206 27.6395L111.88 15.0445L115.682 16.1535C116.616 16.4261 117.393 16.7848 118.014 17.2296C118.65 17.6653 119.082 18.208 119.31 18.8576C119.55 19.511 119.535 20.2985 119.266 21.22C119.009 22.1032 118.597 22.7749 118.033 23.2352C117.484 23.6864 116.815 23.9565 116.025 24.0455C115.239 24.1217 114.385 24.0254 113.464 23.7566L111.256 23.1125L109.8 28.1044L108.206 27.6395ZM111.637 21.8069L113.653 22.395C114.753 22.7161 115.628 22.742 116.276 22.4727C116.937 22.2071 117.396 21.6328 117.654 20.7496C117.919 19.8408 117.833 19.1352 117.396 18.6328C116.963 18.1175 116.202 17.7012 115.115 17.3839L113.099 16.7958L111.637 21.8069Z" fill="white"/>
<path d="M118.37 30.8986L124.438 19.2659L128.055 21.1528C128.847 21.5659 129.489 22.0362 129.981 22.5634C130.491 23.085 130.791 23.6776 130.881 24.3411C130.989 24.999 130.833 25.7299 130.414 26.5337C130.007 27.314 129.494 27.8658 128.874 28.1891C128.266 28.5186 127.587 28.6531 126.836 28.5925C126.104 28.5263 125.342 28.2866 124.55 27.8735L122.404 26.7543L119.842 31.6663L118.37 30.8986ZM123.033 25.5485L124.966 26.5567C125.876 27.0315 126.663 27.209 127.327 27.0892C128.009 26.9637 128.547 26.5226 128.942 25.766C129.337 25.0094 129.372 24.3511 129.048 23.7909C128.741 23.225 128.133 22.7047 127.223 22.2299L125.29 21.2217L123.033 25.5485ZM124.461 27.3084L126.038 27.1386L126.403 35.0886L124.718 34.2099L124.461 27.3084Z" fill="white"/>
<path d="M130.664 38.7428C129.893 38.1273 129.381 37.3688 129.128 36.4674C128.875 35.566 128.898 34.5863 129.196 33.5281C129.503 32.4596 130.106 31.3626 131.005 30.2372C131.886 29.1327 132.806 28.3228 133.763 27.8074C134.729 27.2817 135.675 27.0475 136.602 27.1048C137.528 27.1622 138.377 27.4986 139.148 28.1142C139.92 28.7297 140.436 29.483 140.697 30.374C140.958 31.2649 140.939 32.2395 140.641 33.2976C140.35 34.3453 139.764 35.4214 138.882 36.526C137.984 37.6514 137.048 38.4821 136.074 39.0183C135.108 39.5441 134.158 39.7835 133.223 39.7365C132.288 39.6896 131.435 39.3584 130.664 38.7428ZM131.575 37.6018C132.096 38.0177 132.682 38.2129 133.334 38.1872C134.004 38.1594 134.693 37.9161 135.401 37.4573C136.127 36.9963 136.839 36.3282 137.538 35.4529C138.229 34.588 138.71 33.7608 138.982 32.9713C139.264 32.1902 139.336 31.48 139.198 30.8409C139.079 30.1997 138.759 29.6711 138.238 29.2552C137.717 28.8393 137.125 28.64 136.463 28.6573C135.819 28.6726 135.143 28.9002 134.433 29.3404C133.734 29.7888 133.039 30.4454 132.349 31.3103C131.65 32.1856 131.151 33.0243 130.852 33.8263C130.572 34.6262 130.487 35.352 130.598 36.0036C130.728 36.6532 131.053 37.1859 131.575 37.6018Z" fill="white"/>
<path d="M137.926 45.7639C137.453 45.2038 137.121 44.542 136.929 43.7785C136.738 43.015 136.786 42.2148 137.074 41.378L138.524 41.514C138.317 42.1778 138.261 42.7928 138.355 43.3589C138.468 43.9267 138.688 44.404 139.016 44.791C139.618 45.5039 140.25 45.8691 140.91 45.8868C141.581 45.8958 142.329 45.5518 143.154 44.8547L148.806 40.0784L145.256 35.8775L146.326 34.9738L150.947 40.4426L144.119 46.213C143.498 46.738 142.841 47.1181 142.15 47.3533C141.468 47.5799 140.768 47.5779 140.05 47.3473C139.34 47.1268 138.632 46.599 137.926 45.7639Z" fill="white"/>
<path d="M142.625 51.4755L154.103 45.1206L158.036 52.2245L156.811 52.9026L153.692 47.2685L150.088 49.2641L152.723 54.0233L151.48 54.7111L148.845 49.9519L144.681 52.2575L147.897 58.0666L146.655 58.7544L142.625 51.4755Z" fill="white"/>
<path d="M148.696 65.53C148.448 64.7554 148.364 63.9912 148.445 63.2374C148.525 62.4836 148.759 61.7716 149.147 61.1016C149.547 60.4275 150.102 59.8227 150.813 59.2872C151.54 58.7603 152.412 58.3343 153.428 58.009C154.761 57.5822 155.988 57.4555 157.107 57.6291C158.239 57.7986 159.2 58.2191 159.989 58.8905C160.778 59.5619 161.347 60.4436 161.697 61.5357C161.937 62.2849 161.991 63.0024 161.861 63.6882C161.743 64.3699 161.544 64.9515 161.265 65.4331L159.968 64.861C160.222 64.4297 160.384 63.9721 160.453 63.488C160.522 63.0039 160.473 62.5015 160.306 61.9809C160.05 61.1809 159.617 60.5495 159.007 60.0869C158.414 59.6328 157.689 59.3607 156.835 59.2704C155.98 59.1801 155.032 59.3016 153.99 59.6349C152.936 59.9724 152.081 60.4281 151.425 61.0022C150.769 61.5763 150.325 62.2225 150.093 62.9408C149.865 63.6718 149.879 64.4372 150.135 65.2373C150.318 65.8087 150.603 66.2843 150.991 66.6642C151.378 67.0441 151.857 67.3598 152.428 67.6111L151.743 68.8174C151.017 68.5178 150.394 68.1013 149.873 67.5681C149.352 67.0348 148.96 66.3554 148.696 65.53Z" fill="white"/>
<path d="M150.782 74.2608L162.427 72.9337L161.938 68.6415L163.329 68.483L164.497 78.7366L163.106 78.8951L162.617 74.6029L150.972 75.93L150.782 74.2608Z" fill="white"/>
<path d="M150.766 85.7722C150.847 84.8156 151.093 83.9465 151.507 83.1649C151.932 82.3978 152.463 81.7398 153.097 81.1909L154.17 82.2843C153.637 82.7347 153.19 83.2726 152.83 83.8981C152.482 84.5379 152.277 85.2298 152.215 85.9739C152.139 86.8774 152.273 87.5911 152.617 88.115C152.96 88.6522 153.437 88.9464 154.048 88.9977C154.513 89.0367 154.894 88.9616 155.191 88.7724C155.487 88.5965 155.743 88.3369 155.959 87.9938C156.174 87.6639 156.393 87.2809 156.617 86.8448L157.591 85.0399C157.814 84.617 158.084 84.198 158.399 83.783C158.714 83.3812 159.096 83.052 159.546 82.7953C160.009 82.5398 160.559 82.4387 161.197 82.4922C161.861 82.5479 162.437 82.7768 162.926 83.179C163.426 83.5956 163.795 84.1417 164.033 84.8172C164.284 85.4939 164.375 86.2441 164.305 87.0679C164.236 87.8917 164.02 88.6362 163.657 89.3015C163.306 89.9679 162.872 90.5202 162.354 90.9584L161.351 89.9913C161.772 89.5984 162.11 89.1518 162.366 88.6514C162.636 88.1522 162.799 87.5638 162.856 86.8861C162.919 86.1288 162.798 85.5031 162.491 85.0091C162.198 84.5162 161.752 84.2447 161.155 84.1946C160.743 84.1601 160.394 84.2446 160.11 84.4482C159.824 84.6651 159.58 84.9456 159.377 85.2899C159.174 85.6342 158.977 85.9856 158.787 86.3443L157.836 88.111C157.577 88.6379 157.277 89.1078 156.935 89.5207C156.606 89.9346 156.211 90.2494 155.752 90.4651C155.292 90.6808 154.743 90.7619 154.106 90.7084C153.415 90.6505 152.799 90.4116 152.259 89.9917C151.732 89.5728 151.332 89.0041 151.057 88.2853C150.783 87.5665 150.686 86.7288 150.766 85.7722Z" fill="white"/>
<path d="M41 42C41 43.1046 40.1046 44 39 44C37.8954 44 37 43.1046 37 42C37 40.8954 37.8954 40 39 40C40.1046 40 41 40.8954 41 42Z" fill="#D9D9D9"/>
<path d="M149 123C149 124.105 148.105 125 147 125C145.895 125 145 124.105 145 123C145 121.895 145.895 121 147 121C148.105 121 149 121.895 149 123Z" fill="#D9D9D9"/>
</svg>
